<svg width="695" height="469" viewBox="0 0 695 469" fill="none" xmlns="http://www.w3.org/2000/svg">
<path d="M460.768 416.779V426.413H549.705V416.779H460.768Z" fill="#A15842"/>
<path d="M564.352 461.231L541.221 327.344H469.252L446.121 461.231C446.017 461.865 446.055 462.514 446.233 463.133C446.411 463.751 446.725 464.325 447.153 464.814C447.581 465.303 448.114 465.696 448.713 465.966C449.312 466.236 449.965 466.376 450.625 466.377C451.668 466.379 452.68 466.033 453.492 465.397C454.304 464.762 454.867 463.874 455.088 462.884L485.375 327.315H525.093L555.379 462.884C555.602 463.874 556.167 464.761 556.98 465.397C557.793 466.032 558.805 466.378 559.848 466.377C560.508 466.376 561.161 466.236 561.76 465.966C562.36 465.696 562.892 465.303 563.32 464.814C563.748 464.325 564.062 463.751 564.24 463.133C564.418 462.514 564.456 461.865 564.352 461.231Z" fill="#A15842"/>
<path d="M534.447 416.779V426.413H623.385V416.779H534.447Z" fill="#CA7358"/>
<path d="M638.031 461.231L614.9 327.344H542.932L519.795 461.231C519.691 461.866 519.73 462.515 519.909 463.133C520.088 463.752 520.403 464.325 520.831 464.814C521.26 465.303 521.792 465.696 522.392 465.966C522.991 466.235 523.644 466.376 524.305 466.377C525.347 466.379 526.359 466.033 527.171 465.397C527.983 464.762 528.547 463.874 528.767 462.884L559.054 327.315H598.748L629.035 462.884C629.258 463.874 629.823 464.761 630.636 465.397C631.449 466.032 632.461 466.378 633.504 466.377C634.166 466.379 634.821 466.241 635.424 465.973C636.026 465.705 636.561 465.312 636.992 464.822C637.422 464.333 637.738 463.758 637.918 463.138C638.097 462.518 638.136 461.867 638.031 461.231Z" fill="#CA7358"/>
<path d="M565.34 305.761L574.159 272.212H515.685C504.223 272.211 493.087 275.919 484.031 282.751C474.975 289.583 468.514 299.15 465.666 309.946L459.692 332.701H529.661C537.84 332.701 545.787 330.053 552.247 325.175C558.708 320.297 563.314 313.467 565.34 305.761Z" fill="#FFB7D5"/>
<path d="M599.236 332.701H459.692L462.044 323.593H523.299L546.66 234.758C549.842 222.657 557.076 211.93 567.222 204.269C577.368 196.609 589.848 192.45 602.694 192.45C634.127 192.45 657.129 221.259 649.344 250.869L634.909 305.755C632.885 313.461 628.28 320.292 621.821 325.171C615.361 330.05 607.415 332.699 599.236 332.701Z" fill="#FFB7D5"/>
<path d="M463.49 322.707H537.728" stroke="#A15842" stroke-width="4" stroke-linecap="round" stroke-linejoin="round"/>
<path d="M523.57 322.375L536.576 272.915" stroke="#A15842" stroke-width="4" stroke-linecap="round" stroke-linejoin="round"/>
<path d="M421.226 77.315C417.328 67.6699 410.261 56.5212 406.421 59.7172C405.492 60.4947 404.934 61.8154 404.657 63.5134C403.911 68.2988 405.48 76.0915 407.503 83.1809L401.435 85.7594C401.395 85.9377 401.344 86.1134 401.282 86.2854C400.171 89.4757 396.52 89.8016 396.52 89.8016C396.52 89.8016 400.806 92.3858 398.901 96.6223C396.996 100.859 390.805 99.4809 390.805 99.4809C394.791 103.62 394.244 106.548 391.698 108.531C391.178 108.895 390.571 109.123 389.934 109.195C390.105 114.409 390.446 120.378 391.069 126.644L431.828 114.066C428.464 100.516 424.284 84.879 421.226 77.315Z" fill="#A15842"/>
<path d="M406.615 84.3187C407.003 85.5136 407.356 86.5313 407.515 86.9144C407.515 86.9144 404.228 94.3814 405.869 102.38" stroke="#30242A" stroke-width="4" stroke-linecap="round" stroke-linejoin="round"/>
<path d="M391.698 108.555C394.244 106.571 394.791 103.644 390.805 99.5042C390.805 99.5042 396.996 100.865 398.901 96.6455C400.806 92.426 396.52 89.8245 396.52 89.8245C396.52 89.8245 401.071 89.4358 401.559 85.1076" stroke="#30242A" stroke-width="8" stroke-linecap="round" stroke-linejoin="round"/>
<path d="M386.43 66.9781C388.817 67.6756 399.465 67.79 400.953 74.5135C401.659 77.6809 397.302 78.9387 397.302 78.9387C397.302 78.9387 402.005 81.1741 401.559 85.0905C401.531 85.3176 401.49 85.5429 401.435 85.7651L407.515 83.1809C405.492 76.0915 403.922 68.316 404.669 63.5134L397.455 48.0767L389.729 31.5366L373.265 38.8147L380.991 55.3549L383.531 60.7863L386.43 66.9781Z" fill="#EAA58B"/>
<path d="M397.302 78.9387C397.302 78.9387 401.659 77.6809 400.953 74.5135C399.465 67.79 388.817 67.6527 386.43 66.9781L383.549 60.7863C383.425 60.7863 378.11 61.5981 375.964 64.8284C372.601 69.8939 376.699 73.5244 376.699 73.5244C376.699 73.5244 368.409 76.2801 372.624 83.8842C372.624 83.8842 367.868 89.67 373.8 94.2953C373.8 94.2953 369.308 98.1945 375.17 103.443C380.021 107.8 386.489 109.772 389.952 109.2C390.589 109.129 391.196 108.901 391.716 108.537C394.262 106.553 394.809 103.626 390.822 99.4867C390.822 99.4867 397.014 100.847 398.919 96.628C400.824 92.4086 396.537 89.8073 396.537 89.8073C396.537 89.8073 400.189 89.4814 401.3 86.2911C401.362 86.1191 401.413 85.9434 401.453 85.7651C401.508 85.5429 401.549 85.3176 401.576 85.0905C402.005 81.1856 397.302 78.9387 397.302 78.9387Z" fill="#A15842"/>
<path d="M397.59 78.8645C391.434 78.2928 382.726 76.8577 376.187 73.4501" stroke="#30242A" stroke-width="4" stroke-linecap="round" stroke-linejoin="round"/>
<path d="M398.249 91.0195C392.204 90.5621 382.103 88.8068 373.089 84.7303" stroke="#30242A" stroke-width="4" stroke-linecap="round" stroke-linejoin="round"/>
<path d="M393.604 101.093C389.864 100.299 380.156 98.0688 373.718 95.193" stroke="#30242A" stroke-width="4" stroke-linecap="round" stroke-linejoin="round"/>
<path d="M593.962 167.431C593.976 166.624 593.949 165.817 593.88 165.013L592.951 159.936C589.223 147.135 576.246 137.409 571.478 122.104L555.209 122.259V121.961L534.159 131.172L525.986 114.563H525.839L518.29 131.172L509.605 122.196V122.259C509.605 122.259 483.211 123.173 437.696 138.633C437.696 138.633 435.156 127.341 431.863 114.111L391.104 126.69C393.509 150.788 400.171 179.209 417.951 185.578C438.789 193.039 489.244 178.643 489.244 178.643L496.37 233.563H590.14V223.415C590.14 223.415 597.819 219.698 597.819 211.151C597.802 195.692 593.41 193.559 593.962 167.431Z" fill="#3EC1F3"/>
<path d="M525.834 114.563H510.622L509.599 122.196L518.284 131.172L525.834 114.563Z" fill="#F5EBDD"/>
<path d="M526.016 114.563L534.189 131.172L555.239 121.962C555.321 121.115 555.586 118.531 555.939 114.878V114.563H526.016Z" fill="#F5EBDD"/>
<path d="M485.933 161.565L488.009 177.991" stroke="#4756DF" stroke-width="4" stroke-linecap="round" stroke-linejoin="round"/>
<path d="M525.692 148.77C528.268 148.77 530.355 146.74 530.355 144.236C530.355 141.732 528.268 139.702 525.692 139.702C523.117 139.702 521.03 141.732 521.03 144.236C521.03 146.74 523.117 148.77 525.692 148.77Z" fill="#30242A"/>
<path d="M403.952 141.303C406.527 141.303 408.615 139.273 408.615 136.769C408.615 134.265 406.527 132.235 403.952 132.235C401.377 132.235 399.289 134.265 399.289 136.769C399.289 139.273 401.377 141.303 403.952 141.303Z" fill="#30242A"/>
<path d="M438.854 138.907L440.965 148.764" stroke="#4756DF" stroke-width="4" stroke-linecap="round" stroke-linejoin="round"/>
<path d="M525.839 114.563H526.022L525.969 114.455H555.955V114.563H555.997C556.243 111.985 556.543 108.909 556.861 105.587C551.71 103.906 538.839 98.8863 534.324 89.6129C541.926 87.1487 550.787 76.6746 544.46 68.0472C536.064 56.6126 521.653 71.7463 521.653 71.7463C521.653 71.7463 512.78 66.2006 508.347 54.4973C506.448 55.109 500.744 55.7265 496.311 54.4973C496.311 54.4973 494.406 59.4256 493.142 68.0472C492.965 69.2364 492.769 70.3799 492.554 71.4776C492.554 71.4776 486.809 71.1403 486.18 73.6044C485.392 76.6518 490.419 79.8935 490.419 79.8935C488.45 86.7542 486.815 92.0656 489.344 98.2174C491.578 103.643 496.317 109.921 511.522 108.074L510.669 114.437H525.91L525.839 114.563Z" fill="#A15842"/>
<path d="M508.323 54.4973C512.757 66.2006 521.629 71.7463 521.629 71.7463C521.629 71.7463 536.041 56.6184 544.437 68.0472C550.769 76.6746 541.903 87.1487 534.3 89.6129C538.816 98.8863 551.687 103.906 556.837 105.587C557.949 93.838 559.289 78.9616 559.642 71.7463C560.23 59.9859 559.054 42.7368 539.369 34.1666C520.994 26.1624 503.89 38.4774 503.89 38.4774C503.89 38.4774 488.268 34.1037 487.427 44.0232C486.792 51.4156 496.299 54.4973 496.299 54.4973C500.721 55.7265 506.436 55.109 508.323 54.4973Z" fill="#EAA58B"/>
<path d="M511.91 109.2C514.932 108.692 519.166 107.611 522.576 105.335" stroke="#30242A" stroke-width="4" stroke-miterlimit="10" stroke-linecap="round"/>
<path d="M495.553 85.5872C496.605 86.2216 500.527 86.7302 502.12 83.7812" stroke="#30242A" stroke-width="4" stroke-miterlimit="10" stroke-linecap="round"/>
<path d="M503.255 71.1461C504.314 71.1461 505.172 70.3116 505.172 69.2822C505.172 68.2528 504.314 67.4183 503.255 67.4183C502.196 67.4183 501.338 68.2528 501.338 69.2822C501.338 70.3116 502.196 71.1461 503.255 71.1461Z" fill="#30242A"/>
<path d="M536.2 75.4397L529.232 79.7506" stroke="#30242A" stroke-width="4" stroke-miterlimit="10" stroke-linecap="round"/>
<path d="M496.352 233.546C496.352 233.546 449.191 250.612 431.675 259.674C401.229 275.402 397.519 283.807 378.757 339.196C372.489 357.56 368.262 372.527 364.269 384.202L414.97 406.734L415.035 406.608L423.267 410.353C423.267 410.353 436.549 393.533 438.678 374.494C441.429 349.91 439.783 333.29 451.337 323.656L585.078 233.529L496.352 233.546Z" fill="#30242A"/>
<path d="M356.09 403.327L367.15 408.341C374.794 411.817 374.206 416.842 373.3 418.78C372.466 420.308 371.548 421.791 370.549 423.223L398.125 435.898C404.305 426.498 409.929 416.762 414.97 406.74L364.269 384.202C361.6 392.052 359.048 398.404 356.09 403.327Z" fill="#A15842"/>
<path d="M367.15 408.341L356.09 403.327C353.15 408.192 349.858 411.657 345.642 413.755C342.484 415.273 339.021 416.096 335.499 416.168C334.576 416.202 333.688 416.259 332.812 416.316C335.164 420.41 336.234 426.682 336.234 426.682C342.773 428.397 350.61 426.259 356.226 424.069C358.342 423.24 360.136 422.399 361.412 421.782C362.299 421.337 363.279 421.097 364.277 421.079C365.275 421.061 366.264 421.266 367.168 421.679L370.578 423.246C371.577 421.814 372.495 420.331 373.33 418.803C374.224 416.842 374.823 411.817 367.15 408.341Z" fill="#FF7235"/>
<path d="M370.549 423.223L367.138 421.656C366.235 421.243 365.246 421.038 364.248 421.056C363.25 421.074 362.269 421.314 361.382 421.759C360.106 422.399 358.313 423.24 356.196 424.046C350.61 426.236 342.773 428.38 336.205 426.659C336.205 426.659 335.135 420.37 332.783 416.293C332.195 416.333 331.672 416.379 331.131 416.431C320.494 417.42 314.168 420.221 310.405 424.389L382.426 457.035C385.419 453.507 389.652 448.196 394.579 441.124C395.755 439.471 396.931 437.739 398.107 435.898L370.549 423.223Z" fill="#30242A"/>
<path d="M306.912 430.232L377.716 462.249C377.716 462.249 379.48 460.488 382.42 457.006L310.405 424.389C308.867 426.102 307.682 428.085 306.912 430.232Z" fill="#FF7235"/>
<path d="M551.475 233.546C551.475 233.546 493.742 248.925 465.736 265.563C436.661 282.812 436.337 296.876 440.583 343.043" stroke="black" stroke-width="4" stroke-linecap="round" stroke-linejoin="round"/>
<path d="M537.581 323.713L535.394 332.089" stroke="#A15842" stroke-width="4" stroke-linecap="round" stroke-linejoin="round"/>
<path d="M643.717 271.068H606.974" stroke="#A15842" stroke-width="4" stroke-linecap="round" stroke-linejoin="round"/>
<path d="M211.489 416.779V426.413H300.427V416.779H211.489Z" fill="#A15842"/>
<path d="M196.843 461.231L219.974 327.344H291.948L315.079 461.231C315.184 461.866 315.145 462.515 314.967 463.134C314.788 463.753 314.474 464.327 314.045 464.816C313.616 465.305 313.084 465.698 312.484 465.968C311.883 466.237 311.23 466.377 310.569 466.377C309.527 466.377 308.517 466.03 307.705 465.395C306.893 464.76 306.329 463.873 306.107 462.884L275.82 327.344H236.102L205.815 462.912C205.593 463.902 205.029 464.788 204.217 465.424C203.405 466.059 202.395 466.405 201.353 466.405C200.689 466.406 200.033 466.266 199.43 465.995C198.828 465.723 198.293 465.328 197.864 464.835C197.434 464.343 197.121 463.765 196.944 463.143C196.768 462.52 196.733 461.868 196.843 461.231Z" fill="#A15842"/>
<path d="M137.81 416.779V426.413H226.747V416.779H137.81Z" fill="#CA7358"/>
<path d="M123.163 461.231L146.294 327.344H218.269L241.4 461.231C241.504 461.866 241.466 462.515 241.288 463.134C241.109 463.753 240.795 464.327 240.366 464.816C239.937 465.305 239.404 465.698 238.804 465.968C238.204 466.237 237.551 466.377 236.89 466.377C235.848 466.377 234.837 466.03 234.025 465.395C233.214 464.76 232.65 463.873 232.427 462.884L202.14 327.344H162.423L132.136 462.912C131.913 463.902 131.349 464.788 130.538 465.424C129.726 466.059 128.715 466.405 127.673 466.405C127.009 466.406 126.353 466.266 125.751 465.995C125.148 465.723 124.614 465.328 124.184 464.835C123.755 464.343 123.441 463.765 123.265 463.143C123.089 462.52 123.054 461.868 123.163 461.231Z" fill="#CA7358"/>
<path d="M195.861 305.761L187.041 272.212H245.516C256.978 272.21 268.115 275.918 277.171 282.75C286.227 289.582 292.688 299.15 295.535 309.946L301.509 332.672H231.539C223.364 332.675 215.419 330.032 208.96 325.159C202.5 320.286 197.891 313.462 195.861 305.761Z" fill="#3EC1F3"/>
<path d="M161.958 332.701H301.503L299.151 323.593H237.895L214.529 234.758C211.347 222.657 204.112 211.93 193.966 204.269C183.82 196.609 171.34 192.45 158.495 192.45C127.062 192.45 104.06 221.259 111.845 250.869L126.286 305.755C128.308 313.462 132.912 320.294 139.372 325.173C145.832 330.053 153.778 332.701 161.958 332.701Z" fill="#3EC1F3"/>
<path d="M297.704 322.707H223.466" stroke="#4756DF" stroke-width="4" stroke-miterlimit="10" stroke-linecap="round"/>
<path d="M237.631 322.375L224.619 272.915" stroke="#4756DF" stroke-width="4" stroke-miterlimit="10" stroke-linecap="round"/>
<path d="M223.901 324.868L225.801 332.089" stroke="#4756DF" stroke-width="4" stroke-linecap="round" stroke-linejoin="round"/>
<path d="M117.478 271.068H154.22" stroke="#4756DF" stroke-width="4" stroke-linecap="round" stroke-linejoin="round"/>
<path d="M213.318 447.23L212.577 448.888L12.0476 451.283C10.4655 451.283 8.8989 451.586 7.43721 452.175C5.97552 452.764 4.6474 453.627 3.52868 454.714C2.40995 455.802 1.52253 457.094 0.917081 458.515C0.31163 459.936 0 461.46 0 462.998V466.96H204.545H248.414C254.441 461.626 227.57 452.026 213.318 447.23Z" fill="#EAA58B"/>
<path d="M7.13216 466.388V462.157" stroke="#A15842" stroke-width="4" stroke-linecap="round" stroke-linejoin="round"/>
<path d="M12.6121 466.388V462.157" stroke="#A15842" stroke-width="4" stroke-linecap="round" stroke-linejoin="round"/>
<path d="M84.9979 454.714C82.3873 443.039 79.5238 406.431 79.2534 402.932C78.7947 402.932 78.3361 402.966 77.8716 402.995C60.8673 404.058 50.4484 425.39 47.7084 430.186C47.7084 430.186 37.5658 432.805 29.7399 436.31C30.9236 436.86 31.8392 437.839 32.2917 439.037C33.4147 442.25 30.4572 446.132 25.6887 447.704C24.2664 448.184 22.7659 448.407 21.2612 448.362C23.4191 460.276 34.1967 466.977 57.0337 466.977H96.6163C93.2942 466.217 86.9853 463.604 84.9979 454.714Z" fill="#EAA58B"/>
<path d="M212.895 422.279C208.914 427.145 195.196 431.524 190.287 420.055C180.362 425.132 157.007 420.055 159.071 397.443C134.964 402.074 110.975 416.596 109.728 417.357C116.702 429.432 124.428 443.085 126.127 447.253C129.102 454.485 128.937 465.033 121.893 466.977H212.218C217.152 450.872 218.086 435.086 212.895 422.279Z" fill="#EAA58B"/>
<path d="M190.287 420.055C195.196 431.524 208.914 427.145 212.895 422.279C208.779 412.171 200.9 403.898 188.094 398.73C179.574 395.299 169.32 395.471 159.071 397.443C157.007 420.055 180.362 425.132 190.287 420.055Z" fill="#30242A"/>
<path d="M25.6888 447.704C30.4575 446.132 33.4151 442.25 32.292 439.037C31.8395 437.839 30.9238 436.86 29.7401 436.31C24.8304 438.505 20.8379 441.049 20.8379 443.519C20.8343 445.142 20.9759 446.763 21.2612 448.362C22.766 448.407 24.2665 448.184 25.6888 447.704Z" fill="#30242A"/>
<path d="M57.5805 466.406V463.015C57.5805 461.478 57.892 459.955 58.4972 458.534C59.1024 457.114 59.9894 455.823 61.1076 454.736C62.2258 453.648 63.5533 452.786 65.0144 452.197C66.4754 451.609 68.0413 451.306 69.6227 451.306H87.7975" stroke="#A15842" stroke-width="4" stroke-linecap="round" stroke-linejoin="round"/>
<path d="M64.7068 466.406V462.18" stroke="#A15842" stroke-width="4" stroke-linecap="round" stroke-linejoin="round"/>
<path d="M70.1926 466.406V462.18" stroke="#A15842" stroke-width="4" stroke-linecap="round" stroke-linejoin="round"/>
<path d="M145.318 466.406V462.18" stroke="#A15842" stroke-width="4" stroke-linecap="round" stroke-linejoin="round"/>
<path d="M150.804 466.406V462.18" stroke="#A15842" stroke-width="4" stroke-linecap="round" stroke-linejoin="round"/>
<path d="M137.639 466.406V463.015C137.639 461.477 137.951 459.954 138.557 458.533C139.162 457.112 140.05 455.821 141.169 454.734C142.287 453.646 143.616 452.784 145.077 452.196C146.539 451.608 148.106 451.305 149.687 451.306H169.679" stroke="#A15842" stroke-width="4" stroke-linecap="round" stroke-linejoin="round"/>
<path d="M144.772 422.188C143.672 427.522 145.865 443.52 155.738 450.981" stroke="#A15842" stroke-width="4" stroke-linecap="round" stroke-linejoin="round"/>
<path d="M42.2173 465.96C30.5986 464.016 23.9072 459.293 21.1554 452.238" stroke="#A15842" stroke-width="4" stroke-linecap="round" stroke-linejoin="round"/>
<path d="M217.152 449.093C216.501 454.901 215.321 460.641 213.624 466.246" stroke="#A15842" stroke-width="4" stroke-linecap="round" stroke-linejoin="round"/>
<path d="M63.6132 432.319C66.336 434.676 69.8405 436.001 73.4856 436.052" stroke="#A15842" stroke-width="4" stroke-linecap="round" stroke-linejoin="round"/>
<path d="M126.127 447.253C124.404 443.073 116.719 429.432 109.728 417.357L109.675 417.391C103.278 410.65 95.3169 402.4 79.2534 402.932C79.5238 406.431 82.3873 443.039 84.9979 454.714C86.9853 463.604 93.2943 466.217 96.6163 466.977H121.899C128.955 465.033 129.102 454.485 126.127 447.253Z" fill="#30242A"/>
<path d="M37.2895 385.757L46.3152 380.394L42.3051 394.048L52.9183 387.913" stroke="#FFB7D5" stroke-width="4" stroke-linecap="round" stroke-linejoin="round"/>
<path d="M54.8112 359.349L64.319 358.612L55.3756 368.005L66.0771 367.279" stroke="#FFB7D5" stroke-width="4" stroke-linecap="round" stroke-linejoin="round"/>
<path d="M525.692 148.77C528.268 148.77 530.355 146.74 530.355 144.236C530.355 141.732 528.268 139.702 525.692 139.702C523.117 139.702 521.03 141.732 521.03 144.236C521.03 146.74 523.117 148.77 525.692 148.77Z" fill="#30242A"/>
<path d="M592.951 159.936L593.88 165.013C593.744 163.295 593.433 161.594 592.951 159.936Z" fill="#A15842"/>
<path d="M555.938 114.877L555.973 114.563H555.932L555.938 114.877Z" fill="#3EC1F3"/>
<path d="M510.64 114.454H510.546L510.534 114.563H510.622L510.64 114.454Z" fill="#F5EBDD"/>
<path d="M525.834 114.563L525.881 114.454H510.64L510.622 114.563H525.834Z" fill="#F5EBDD"/>
<path d="M510.534 114.563L509.511 122.104L509.599 122.196L510.622 114.563H510.534Z" fill="#F5EBDD"/>
<path d="M555.927 114.454H525.963L526.016 114.563H555.933L555.927 114.454Z" fill="#F5EBDD"/>
<path d="M199.5 52.1417C214.308 52.1417 226.312 40.4694 226.312 26.0709C226.312 11.6723 214.308 0 199.5 0C184.693 0 172.689 11.6723 172.689 26.0709C172.689 40.4694 184.693 52.1417 199.5 52.1417Z" fill="#30242A"/>
<path d="M218.016 43.4522C216.375 44.184 230.146 12.4121 237.167 17.3749C243.782 22.0574 226.312 39.7301 218.016 43.4522Z" fill="#3EC1F3"/>
<path d="M217.252 45.3958C215.753 47.1396 180.632 35.1959 185.501 28.3006C190.158 21.6684 218.752 43.652 217.252 45.3958Z" fill="#3EC1F3"/>
<path d="M265.695 61.7067C260.597 62.5415 253.13 60.8377 253.13 60.8377C242.911 72.0093 232.057 74.4906 232.057 74.4906C225.036 67.0581 212.265 67.0581 210.355 77.5951C208.232 89.2755 223.119 92.4944 223.119 92.4944C223.119 92.4944 225.23 107.096 219.486 114.546C218.68 115.587 217.939 116.501 217.199 117.307H245.674L244.828 112.362C244.828 112.362 253.765 115.466 261.426 111.121C269.087 106.776 271.004 98.7034 268.447 86.2854C266.935 78.933 266.988 69.8367 265.695 61.7067Z" fill="#EAA58B"/>
<path d="M256.17 219.681C243.558 226.616 236.972 239.943 236.972 239.943H280.841L267.794 214.501C262.596 216.685 257.722 218.812 256.17 219.681Z" fill="#FF7235"/>
<path d="M194.808 124.363C175.546 126.444 168.444 133.087 154.42 149.45C150.957 153.492 145.601 160.376 142.249 164.675L142.355 164.761C142.355 164.761 117.96 194.176 119.083 216.543L153.297 225.833L176.652 196.24L183.237 215.971C183.237 215.971 168.432 224.501 160.206 239.983H236.972C236.972 239.983 243.558 226.656 256.17 219.721C257.734 218.852 262.596 216.737 267.794 214.541L266.03 211.111L271.504 194.645L283.593 207.955C283.593 207.955 275.361 211.311 267.8 214.501L280.847 239.943H326.915C352.686 223.415 332.942 193.559 324.722 182.891C319.06 175.555 292.912 138.633 274.82 129.039C262.755 122.642 246.75 123.534 246.75 123.534L245.68 117.307H217.199C213.294 121.55 209.29 122.796 194.808 124.363Z" fill="#FF7235"/>
<path d="M283.558 206.766L293.459 203.153" stroke="#A15842" stroke-width="4" stroke-miterlimit="10" stroke-linecap="round"/>
<path d="M194.173 211.54C194.326 201.066 196.102 174.532 209.555 161.022C224.395 146.157 257.81 149.296 268.229 162.623C278.648 175.95 271.522 194.64 271.522 194.64L266.589 211.168L280.841 239.961H153.062L178.286 217.566L194.173 211.54Z" fill="#FFB7D5"/>
<path d="M194.203 211.151H266.547" stroke="#F5EBDD" stroke-width="4" stroke-miterlimit="10" stroke-linecap="round"/>
<path d="M225.46 188.757H253.425" stroke="#F5EBDD" stroke-width="4" stroke-miterlimit="10" stroke-linecap="round"/>
<path d="M277.008 210.619L291.26 242.636H263.843C258.363 242.636 251.231 242.636 251.783 239.966C247.391 243.168 240.265 242.636 240.812 239.966C233.685 243.168 231.492 241.035 230.945 239.966C230.399 238.897 237.525 229.835 253.424 221.259C262.661 216.331 277.008 210.619 277.008 210.619Z" fill="#EAA58B"/>
<path d="M237.525 242.076C237.525 242.076 245.757 234.072 263.843 224.484" stroke="#A15842" stroke-width="4" stroke-miterlimit="10" stroke-linecap="round"/>
<path d="M268.783 230.35C259.444 236.034 250.47 242.266 241.911 249.012" stroke="#A15842" stroke-width="4" stroke-miterlimit="10" stroke-linecap="round"/>
<path d="M274.263 236.747C259.486 244.214 243.022 254.346 243.022 254.346" stroke="#A15842" stroke-width="4" stroke-miterlimit="10" stroke-linecap="round"/>
<path d="M194.317 123.433L208.713 118.249C208.748 118.237 208.784 118.232 208.82 118.233C208.856 118.234 208.892 118.243 208.925 118.257C208.958 118.272 208.987 118.293 209.012 118.319C209.037 118.345 209.056 118.375 209.069 118.408L226.099 163.128C226.832 165.052 226.749 167.18 225.868 169.045C224.987 170.909 223.38 172.356 221.402 173.069C219.423 173.781 217.235 173.7 215.317 172.844C213.4 171.987 211.912 170.425 211.179 168.501L194.148 123.781C194.135 123.747 194.13 123.711 194.131 123.676C194.133 123.64 194.142 123.605 194.157 123.572C194.173 123.54 194.195 123.511 194.223 123.487C194.25 123.463 194.282 123.445 194.317 123.433Z" fill="#A15842"/>
<path d="M257.587 174.949C258.627 175.065 259.68 174.981 260.686 174.701C261.692 174.421 262.632 173.951 263.451 173.317C264.27 172.684 264.953 171.899 265.46 171.009C265.967 170.119 266.289 169.14 266.406 168.128L271.157 127.364C266.155 125.472 260.9 124.285 255.552 123.837L250.578 166.373C250.458 167.384 250.545 168.408 250.833 169.386C251.12 170.364 251.603 171.277 252.254 172.074C252.905 172.87 253.711 173.534 254.626 174.028C255.541 174.521 256.547 174.834 257.587 174.949Z" fill="#A15842"/>
<path d="M218.486 169.758C221.062 169.758 223.149 167.728 223.149 165.224C223.149 162.72 221.062 160.69 218.486 160.69C215.911 160.69 213.824 162.72 213.824 165.224C213.824 167.728 215.911 169.758 218.486 169.758Z" fill="#30242A"/>
<path d="M258.633 171.165C261.209 171.165 263.296 169.135 263.296 166.631C263.296 164.127 261.209 162.097 258.633 162.097C256.058 162.097 253.971 164.127 253.971 166.631C253.971 169.135 256.058 171.165 258.633 171.165Z" fill="#30242A"/>
<path d="M168.855 125.397L197.049 117.307H217.199C217.939 116.501 218.68 115.592 219.486 114.546C225.23 107.114 223.119 92.4944 223.119 92.4944C223.119 92.4944 208.232 89.2756 210.355 77.5951C212.265 67.0467 225.054 67.0467 232.057 74.4906C232.057 74.4906 242.911 72.0093 253.13 60.8377C253.13 60.8377 260.597 62.5529 265.695 61.7068C264.801 56.1095 263.272 50.9754 260.15 47.1791C252.507 37.8656 231.422 31.6624 214.823 43.4572C198.225 55.2519 199.5 74.4906 200.124 81.9403C200.124 81.9403 182.249 76.3545 169.484 89.3728C165.79 93.1005 163.099 97.6576 161.65 102.639C160.202 107.621 160.041 112.874 161.182 117.931C161.182 117.931 137.663 117.285 133.094 138.416C130.742 149.239 134.453 156.791 139.151 161.799L142.09 155.979L168.855 125.397Z" fill="#30242A"/>
<path d="M194.808 124.363C209.296 122.796 213.3 121.55 217.204 117.307H197.049L168.855 125.397L142.079 155.996L139.139 161.817C140.096 162.838 141.125 163.793 142.22 164.675C145.548 160.376 150.928 153.492 154.391 149.45C168.438 133.087 175.54 126.444 194.808 124.363Z" fill="#30242A"/>
<path d="M244.369 113.511C241.725 112.488 239.145 111.313 236.643 109.995" stroke="#A15842" stroke-width="4" stroke-linecap="round" stroke-linejoin="round"/>
<path d="M160.177 118.634C161.102 122.052 162.354 125.379 163.916 128.571" stroke="black" stroke-width="4" stroke-linecap="round" stroke-linejoin="round"/>
<path d="M198.936 82.4777L200.776 91.8772" stroke="black" stroke-width="4" stroke-linecap="round" stroke-linejoin="round"/>
<path d="M177.551 196.773L190.364 179.157" stroke="#A15842" stroke-width="4" stroke-miterlimit="10" stroke-linecap="round"/>
<path d="M223.12 99.6357C226.822 99.6357 229.823 96.7175 229.823 93.1178C229.823 89.518 226.822 86.5999 223.12 86.5999C219.418 86.5999 216.417 89.518 216.417 93.1178C216.417 96.7175 219.418 99.6357 223.12 99.6357Z" fill="#F5EBDD"/>
<path d="M224.396 81.9404L219.292 78.8415" stroke="#A15842" stroke-width="4" stroke-linecap="round" stroke-linejoin="round"/>
<path d="M257.058 96.5129C255.999 97.153 252.042 97.656 250.443 94.6898" stroke="#A15842" stroke-width="4" stroke-linecap="round" stroke-linejoin="round"/>
<path d="M246.656 82.5521C247.715 82.5521 248.573 81.7176 248.573 80.6882C248.573 79.6588 247.715 78.8243 246.656 78.8243C245.598 78.8243 244.739 79.6588 244.739 80.6882C244.739 81.7176 245.598 82.5521 246.656 82.5521Z" fill="#30242A"/>
<path d="M261.426 80.0823C262.485 80.0823 263.343 79.2478 263.343 78.2184C263.343 77.189 262.485 76.3545 261.426 76.3545C260.368 76.3545 259.509 77.189 259.509 78.2184C259.509 79.2478 260.368 80.0823 261.426 80.0823Z" fill="#30242A"/>
<path d="M256.317 83.1866C256.317 83.1866 258.081 87.429 257.628 88.2752C257.328 88.8155 256.872 89.2587 256.317 89.5502" stroke="#A15842" stroke-width="4" stroke-linecap="round" stroke-linejoin="round"/>
<path d="M355.167 460.694H344.666C345.4 462.71 345.708 464.849 345.571 466.983H389.899C390.687 458.527 384.907 449.305 368.262 441.947L367.915 441.787C363.346 445.12 359.242 450.637 355.167 460.694Z" fill="#3EC1F3"/>
<path d="M367.474 441.581C353.627 434.903 356.126 420.238 360.159 386.975C359.203 385.354 357.768 384.05 356.04 383.232C354.313 382.415 352.372 382.121 350.47 382.389C348.568 382.657 346.794 383.475 345.376 384.736C343.958 385.997 342.963 387.644 342.52 389.462C342.015 387.428 340.821 385.618 339.13 384.323C337.439 383.028 335.35 382.324 333.198 382.324C331.045 382.324 328.956 383.028 327.265 384.323C325.574 385.618 324.38 387.428 323.875 389.462C323.37 387.428 322.176 385.618 320.486 384.323C318.795 383.028 316.705 382.324 314.553 382.324C312.401 382.324 310.311 383.028 308.62 384.323C306.929 385.618 305.735 387.428 305.23 389.462C304.726 387.428 303.532 385.618 301.841 384.323C300.15 383.028 298.06 382.324 295.908 382.324C293.756 382.324 291.666 383.028 289.975 384.323C288.284 385.618 287.091 387.428 286.586 389.462C286.081 387.428 284.887 385.618 283.196 384.323C281.505 383.028 279.416 382.324 277.263 382.324C275.111 382.324 273.021 383.028 271.331 384.323C269.64 385.618 268.446 387.428 267.941 389.462C267.588 388.031 266.891 386.702 265.908 385.584C264.924 384.465 263.683 383.59 262.284 383.028C260.885 382.466 259.37 382.235 257.861 382.352C256.353 382.47 254.895 382.933 253.606 383.705C253.665 386.649 253.782 389.725 253.971 392.978C254.864 408.375 258.439 428.969 261.508 444.52C276.467 445.297 282.529 456.034 284.44 460.694H309.623C309.852 460.122 310.075 459.59 310.305 459.053L310.446 458.727C310.663 458.23 310.875 457.744 311.093 457.269C311.145 457.143 311.204 457.029 311.257 456.909C311.451 456.486 311.645 456.08 311.845 455.68L312.022 455.32C312.206 454.938 312.388 454.578 312.568 454.239L312.815 453.753L313.368 452.718L313.686 452.147C313.791 451.952 313.903 451.763 314.009 451.575C314.197 451.249 314.391 450.929 314.597 450.614C314.679 450.488 314.756 450.363 314.832 450.237C315.273 449.534 315.714 448.871 316.161 448.247L316.243 448.127C316.496 447.779 316.749 447.441 317.002 447.11C318.538 445.078 320.363 443.268 322.423 441.735C322.893 441.987 323.381 442.227 323.899 442.456C336.146 447.864 342.508 454.296 344.707 460.671H355.167C359.242 450.614 363.346 445.097 367.909 441.758L367.474 441.581Z" fill="#F5EBDD"/>
<path d="M344.666 460.694H344.707C342.508 454.319 336.146 447.887 323.899 442.479C323.381 442.25 322.893 442.01 322.423 441.758C320.431 443.24 318.66 444.983 317.16 446.938L317.055 447.075L317.008 447.132C316.755 447.464 316.502 447.801 316.249 448.15L316.167 448.27C315.72 448.893 315.279 449.557 314.838 450.26C314.762 450.386 314.685 450.511 314.603 450.637C314.415 450.952 314.221 451.272 314.015 451.598C313.909 451.781 313.797 451.969 313.691 452.169L313.374 452.741L312.821 453.776L312.574 454.262C312.394 454.609 312.212 454.969 312.027 455.342L311.851 455.703C311.663 456.103 311.469 456.509 311.263 456.932C311.21 457.052 311.151 457.166 311.098 457.292C310.881 457.767 310.669 458.253 310.452 458.75L310.311 459.076C310.081 459.613 309.858 460.156 309.629 460.717H284.469C282.535 456.057 276.472 445.32 261.538 444.542C264.096 457.526 266.306 467 266.306 467H345.571C345.711 464.86 345.403 462.715 344.666 460.694Z" fill="#3EC1F3"/>
<path d="M173.912 264.574V254.854H155.167C153.604 263.539 153.973 272.448 156.249 280.983H157.013C161.491 280.983 165.786 279.255 168.954 276.178C172.123 273.102 173.906 268.928 173.912 264.574Z" fill="#A15842"/>
<path d="M341.391 266.557L340.497 266.066C334.241 265.831 326.574 266.42 317.302 268.45L317.155 268.484C316.408 268.644 315.649 268.821 314.879 269.004L314.45 269.107C313.709 269.285 312.962 269.473 312.204 269.679L311.751 269.793C310.922 270.011 310.087 270.245 309.235 270.485L308.976 270.554C308.023 270.828 307.053 271.126 306.071 271.411C271.833 281.845 256.646 308.002 252.077 324.216H262.202C259.18 337.892 252.977 352.403 253.606 383.705C254.895 382.931 256.354 382.466 257.864 382.347C259.374 382.228 260.891 382.459 262.292 383.021C263.692 383.583 264.935 384.459 265.919 385.579C266.903 386.699 267.6 388.03 267.953 389.462C268.458 387.428 269.651 385.618 271.342 384.323C273.033 383.028 275.123 382.324 277.275 382.324C279.427 382.324 281.517 383.028 283.208 384.323C284.899 385.618 286.093 387.428 286.597 389.462C287.102 387.428 288.296 385.618 289.987 384.323C291.678 383.028 293.768 382.324 295.92 382.324C298.072 382.324 300.162 383.028 301.853 384.323C303.543 385.618 304.737 387.428 305.242 389.462C305.747 387.428 306.941 385.618 308.632 384.323C310.323 383.028 312.412 382.324 314.565 382.324C316.717 382.324 318.806 383.028 320.497 384.323C322.188 385.618 323.382 387.428 323.887 389.462C324.392 387.428 325.586 385.618 327.277 384.323C328.967 383.028 331.057 382.324 333.209 382.324C335.361 382.324 337.451 383.028 339.142 384.323C340.833 385.618 342.027 387.428 342.532 389.462C342.975 387.644 343.97 385.997 345.388 384.736C346.805 383.475 348.58 382.657 350.482 382.389C352.384 382.121 354.324 382.415 356.052 383.232C357.78 384.05 359.215 385.354 360.171 386.975C361.129 379.057 362.176 370.086 363.111 359.921C368.497 301.13 372.601 283.887 341.391 266.557Z" fill="#EAA58B"/>
<path d="M345.601 466.583C345.895 458.401 339.945 449.568 323.899 442.479C305.736 434.474 313.815 414.126 318.742 360.453C324.246 300.512 328.414 283.761 295.164 266.071C266.101 250.635 236.49 240.481 236.49 240.481" stroke="#30242A" stroke-width="4" stroke-miterlimit="10" stroke-linecap="round"/>
<path d="M306.071 271.406C270.305 282.331 256.44 308.071 252.054 324.211C256.646 308.008 271.833 281.863 306.071 271.406Z" fill="#A15842"/>
<path d="M286.327 266.609C298.605 260.987 312.06 258.223 325.627 258.536C311.049 251.569 296.099 245.362 280.841 239.943H160.206C160.206 239.943 156.913 245.278 155.214 254.591C155.214 254.688 155.185 254.78 155.167 254.877H173.912V264.596C173.912 266.754 173.475 268.891 172.625 270.884C171.776 272.878 170.531 274.689 168.962 276.215C167.393 277.741 165.53 278.951 163.48 279.777C161.43 280.603 159.232 281.028 157.013 281.028H156.249C162.817 305.521 184.754 324.233 212.877 324.233H236.855C241.729 306.681 252.595 282.011 286.327 266.609Z" fill="#FFB7D5"/>
<path d="M306.071 271.406C320.577 266.975 331.878 265.746 340.497 266.066L339.521 265.54C334.864 263.064 330.19 260.72 325.627 258.536C312.06 258.223 298.605 260.987 286.327 266.609C252.595 282.011 241.729 306.681 236.855 324.211H252.054C256.44 308.071 270.305 282.331 306.071 271.406Z" fill="#A15842"/>
<path d="M263.014 325.686H276.032" stroke="#A15842" stroke-width="4" stroke-linecap="round" stroke-linejoin="round"/>
<path d="M311.916 208.487V235.679" stroke="#30242A" stroke-width="4" stroke-miterlimit="10" stroke-linecap="round"/>
<path d="M326.063 172.091C326.063 172.091 322.024 180.438 311.916 180.438C301.809 180.438 297.804 172.091 297.804 172.091" stroke="#30242A" stroke-width="4" stroke-linecap="round" stroke-linejoin="round"/>
<path d="M299.674 190.357H324.164V192.844C324.164 196.003 322.874 199.032 320.577 201.266C318.28 203.499 315.164 204.754 311.916 204.754C308.668 204.754 305.552 203.499 303.256 201.266C300.959 199.032 299.668 196.003 299.668 192.844V190.357H299.674Z" fill="#A15842"/>
<path d="M299.321 171.159H324.516C324.878 171.159 325.237 171.228 325.571 171.363C325.906 171.498 326.21 171.695 326.466 171.944C326.722 172.193 326.925 172.489 327.064 172.814C327.202 173.139 327.274 173.488 327.274 173.84V193.022C327.274 196.981 325.656 200.778 322.777 203.577C319.898 206.377 315.993 207.949 311.922 207.949V207.949C309.906 207.949 307.909 207.563 306.047 206.813C304.184 206.063 302.492 204.963 301.066 203.577C299.641 202.191 298.51 200.545 297.738 198.734C296.967 196.923 296.57 194.982 296.57 193.022V173.84C296.57 173.129 296.86 172.447 297.377 171.944C297.894 171.441 298.596 171.159 299.327 171.159H299.321Z" stroke="#30242A" stroke-width="4" stroke-miterlimit="10" stroke-linecap="round"/>
<path d="M311.916 233.014L299.674 239.944H324.164L311.916 233.014Z" fill="#30232A"/>
<path d="M457.734 208.487V235.679" stroke="#30242A" stroke-width="4" stroke-miterlimit="10" stroke-linecap="round"/>
<path d="M471.881 172.091C471.881 172.091 467.842 180.438 457.734 180.438C447.627 180.438 443.622 172.091 443.622 172.091" stroke="#30242A" stroke-width="4" stroke-linecap="round" stroke-linejoin="round"/>
<path d="M445.492 190.357H469.982V192.844C469.982 196.003 468.692 199.032 466.395 201.266C464.098 203.499 460.983 204.754 457.734 204.754C454.486 204.754 451.371 203.499 449.074 201.266C446.777 199.032 445.486 196.003 445.486 192.844V190.357H445.492Z" fill="#FF7235"/>
<path d="M445.139 171.159H470.334C470.696 171.159 471.055 171.228 471.39 171.363C471.724 171.498 472.028 171.695 472.284 171.944C472.54 172.193 472.743 172.489 472.882 172.814C473.021 173.139 473.092 173.488 473.092 173.84V193.022C473.092 196.981 471.474 200.778 468.595 203.577C465.716 206.377 461.811 207.949 457.74 207.949V207.949C453.668 207.949 449.763 206.377 446.884 203.577C444.005 200.778 442.388 196.981 442.388 193.022V173.84C442.388 173.129 442.678 172.447 443.195 171.944C443.713 171.441 444.414 171.159 445.145 171.159H445.139Z" stroke="#30242A" stroke-width="4" stroke-miterlimit="10" stroke-linecap="round"/>
<path d="M457.734 233.014L445.492 239.944H469.982L457.734 233.014Z" fill="#30232A"/>
<path d="M673.063 466.983C685.178 466.983 695 457.433 695 445.652C695 433.871 685.178 424.32 673.063 424.32C660.947 424.32 651.125 433.871 651.125 445.652C651.125 457.433 660.947 466.983 673.063 466.983Z" fill="#FFB7D5"/>
<path d="M156.913 205.823C156.913 205.823 182.69 203.764 193.809 203.261" stroke="#A15842" stroke-width="4" stroke-miterlimit="10" stroke-linecap="round"/>
<path d="M126.303 305.761L117.484 272.212H168.937C180.399 272.211 191.536 275.919 200.592 282.751C209.648 289.583 216.109 299.15 218.957 309.946L224.93 332.672H161.976C153.801 332.674 145.858 330.03 139.4 325.157C132.941 320.285 128.333 313.461 126.303 305.761Z" fill="#3EC1F3"/>
<path d="M590.499 223.415H490.32V233.546H590.499V223.415Z" fill="#F5EBDD"/>
<path d="M387.618 204.753H367.327H347.036V222.351H367.327H387.618H407.909V204.753H387.618Z" fill="#EAA58B"/>
<path d="M387.618 222.351H367.327H347.036V239.943H367.327H387.618H407.909V222.351H387.618Z" fill="#EAA58B"/>
<path d="M387.618 187.156H367.327H347.036V204.753H367.327H387.618H407.909V187.156H387.618Z" fill="#EAA58B"/>
<path d="M387.618 151.966H367.327H347.036V169.564H367.327H387.618H407.909V151.966H387.618Z" fill="#EAA58B"/>
<path d="M387.618 116.776H367.327H347.036V134.368H367.327H387.618H407.909V116.776H387.618Z" fill="#EAA58B"/>
<path d="M387.618 169.564H367.327V187.162H387.618V169.564Z" fill="#EAA58B"/>
<path d="M387.618 134.368H367.327V151.966H387.618V134.368Z" fill="#EAA58B"/>
<path d="M387.618 222.352V204.753" stroke="#A15842" stroke-width="4" stroke-linejoin="round"/>
<path d="M367.327 222.352V204.753" stroke="#A15842" stroke-width="4" stroke-linejoin="round"/>
<path d="M387.618 98.4118H367.327H347.036V116.01H367.327H387.618H407.909V98.4118H387.618Z" fill="#EAA58B"/>
<path d="M387.618 116.01V98.4118" stroke="#A15842" stroke-width="4" stroke-linejoin="round"/>
<path d="M367.327 116.01V98.4118" stroke="#A15842" stroke-width="4" stroke-linejoin="round"/>
<path d="M347.036 222.351H367.327H387.618H407.909" stroke="#A15842" stroke-width="4" stroke-linejoin="round"/>
<path d="M347.036 204.753H367.327H387.618H407.909" stroke="#A15842" stroke-width="4" stroke-linejoin="round"/>
<path d="M347.036 116.776H367.327H387.618H407.909" stroke="#A15842" stroke-width="4" stroke-linejoin="round"/>
<path d="M367.327 186.092H374.089H380.856H387.618" stroke="#A15842" stroke-width="4" stroke-linejoin="round"/>
<path d="M367.327 170.627H374.089H380.856H387.618" stroke="#A15842" stroke-width="4" stroke-linejoin="round"/>
<path d="M367.327 150.902H374.089H380.856H387.618" stroke="#A15842" stroke-width="4" stroke-linejoin="round"/>
<path d="M367.327 135.437H374.089H380.856H387.618" stroke="#A15842" stroke-width="4" stroke-linejoin="round"/>
<path d="M462.667 422.84H449.402C449.108 429.895 447.509 434.846 443.717 438.408C442.09 439.887 440.214 441.084 438.172 441.947C436.825 442.519 435.573 443.153 434.397 443.776C438.513 446.361 442.629 452.169 442.629 452.169C445.825 451.54 448.851 450.268 451.513 448.436C456.852 444.948 461.174 440.026 463.273 437.373C463.884 436.605 464.668 435.985 465.565 435.56C466.463 435.134 467.449 434.916 468.447 434.92H472.216C472.505 433.216 472.702 431.499 472.804 429.775C472.774 427.654 471.157 422.84 462.667 422.84Z" fill="#FF7235"/>
<path d="M472.21 434.932H468.441C467.443 434.927 466.457 435.146 465.56 435.571C464.662 435.996 463.878 436.617 463.267 437.384C461.156 440.037 456.834 444.96 451.507 448.447C448.845 450.28 445.819 451.551 442.623 452.181C442.623 452.181 438.507 446.372 434.391 443.788C433.956 444.011 433.539 444.239 433.127 444.468C424.219 449.465 420.439 455.119 419.31 460.711H497.028C498.286 456.68 499.32 452.586 500.127 448.447C500.886 444.645 501.62 440.209 502.238 435.098L472.21 434.932Z" fill="#30242A"/>
<path d="M419.033 466.977H494.629C495.584 464.94 496.384 462.838 497.023 460.688H419.316C418.915 462.761 418.82 464.878 419.033 466.977Z" fill="#FF7235"/>
<path d="M447.033 432.914L462.909 443.205" stroke="#F5EBDD" stroke-width="4" stroke-miterlimit="10" stroke-linecap="round"/>
<path d="M441.153 439.203L453.501 450.637" stroke="#F5EBDD" stroke-width="4" stroke-miterlimit="10" stroke-linecap="round"/>
<path d="M608.497 270.502C604.334 247.159 590.123 233.546 590.123 233.546H552.651C552.651 233.546 494.918 248.925 466.912 265.563C434.574 284.761 437.825 300.004 443.328 359.944C445.292 381.321 447.756 397.403 448.861 409.53H503.955C503.955 409.461 503.955 409.393 503.955 409.324H514.121C514.121 409.324 519.342 385.837 513.568 364.906C507.512 342.963 502.009 339.218 498.71 324.233H561.906C591.199 324.211 613.501 298.563 608.497 270.502Z" fill="#30242A"/>
<path d="M449.402 422.84H462.673C471.134 422.84 472.78 427.636 472.78 429.769C472.678 431.493 472.482 433.211 472.192 434.915L502.214 435.063C503.09 427.899 503.737 419.415 503.937 409.49H448.844C449.314 413.924 449.501 418.383 449.402 422.84Z" fill="#A15842"/>
<path d="M498.187 325.114H484.887" stroke="black" stroke-width="4" stroke-linecap="round" stroke-linejoin="round"/>
<path d="M347.665 411.188L357.661 426.625" stroke="#F5EBDD" stroke-width="4" stroke-miterlimit="10" stroke-linecap="round"/>
<path d="M340.609 414.618L347.077 430.055" stroke="#F5EBDD" stroke-width="4" stroke-miterlimit="10" stroke-linecap="round"/>
<path d="M634.897 305.761L643.717 272.212H592.281C580.818 272.21 569.682 275.918 560.625 282.75C551.569 289.582 545.108 299.15 542.261 309.946L536.282 332.672H599.219C607.394 332.674 615.338 330.03 621.798 325.158C628.257 320.285 632.866 313.461 634.897 305.761Z" fill="#FFB7D5"/>
<path d="M562.705 239.943H196.943C193.007 239.943 189.816 243.046 189.816 246.873V246.878C189.816 250.705 193.007 253.808 196.943 253.808H562.705C566.641 253.808 569.832 250.705 569.832 246.878V246.873C569.832 243.046 566.641 239.943 562.705 239.943Z" fill="#A15842"/>
<path d="M241.364 207.955C236.278 205.708 223.266 203.69 210.654 203.69C208.255 203.69 205.674 203.73 202.975 203.804V238.371C209.22 236.484 214.365 234.701 217.781 233.546C217.781 233.546 242.887 252.196 247.362 243.665C247.362 243.665 253.912 246.238 255.593 239.943C255.593 239.943 263.272 239.943 260.532 234.615C258.686 230.979 250.666 222.883 250.666 222.883C250.666 222.883 260.191 228.469 264.925 225.016C269.329 221.831 247.391 210.619 241.364 207.955Z" fill="#EAA58B"/>
<path d="M155.267 206.886L119.624 208.487C116.337 225.547 125.504 243.145 141.009 245.809C161.405 249.308 186.165 243.454 202.975 238.377V203.804C182.379 204.388 155.267 206.886 155.267 206.886Z" fill="#FF7235"/>
<path d="M251.713 222.249C247.397 218.898 241.5 214.393 237.525 211.683" stroke="#A15842" stroke-width="4" stroke-miterlimit="10" stroke-linecap="round"/>
<path d="M230.945 218.006C241.723 225.302 251.419 234.93 256.023 239.773" stroke="#A15842" stroke-width="4" stroke-miterlimit="10" stroke-linecap="round"/>
<path d="M225.877 225.542C233.121 230.687 241.418 238.463 246.833 243.769" stroke="#A15842" stroke-width="4" stroke-miterlimit="10" stroke-linecap="round"/>
<path d="M451.384 218.086C439.324 223.952 429.723 234.095 421.226 244.746C417.387 249.543 407.703 261.492 414.094 262.875C419.033 263.939 428.905 254.345 428.905 254.345C428.905 254.345 422.961 266.86 427.259 270.354C430.546 273.024 434.903 268.759 434.903 268.759C438.742 276.763 444.775 269.822 444.775 269.822C454.453 276.763 463.966 251.161 463.966 251.161C469.608 249.208 474.95 246.515 479.842 243.157C479.842 243.157 482.97 243.946 488.026 244.917L483.464 208.956C471.534 211.1 459.662 214.061 451.384 218.086Z" fill="#A15842"/>
<path d="M427.059 255.941C428.823 251.424 431.934 243.774 434.703 238.611" stroke="#30242A" stroke-width="4" stroke-miterlimit="10" stroke-linecap="round"/>
<path d="M444.805 242.076C440.218 251.687 436.861 262.219 434.991 268.754" stroke="#30242A" stroke-width="4" stroke-miterlimit="10" stroke-linecap="round"/>
<path d="M455.224 245.272C451.754 252.99 448.226 263.436 446.01 270.383" stroke="#30242A" stroke-width="4" stroke-miterlimit="10" stroke-linecap="round"/>
<path d="M557.22 239.943C576.229 224.547 597.32 190.14 599.442 151.966C600.542 132.235 584.637 122.104 572.577 122.104H568.174L529.244 203.69C529.244 203.69 506.166 204.874 483.511 208.944L488.074 244.906C504.425 248.056 540.915 253.156 557.22 239.943Z" fill="#3EC1F3"/>
<path d="M545.89 168.923L529.843 202.548" stroke="#4756DF" stroke-width="4" stroke-linecap="round" stroke-linejoin="round"/>
<path d="M573.43 222.586C577.171 217.517 580.54 212.198 583.514 206.669C585.278 203.399 586.954 199.991 588.5 196.463" stroke="#4756DF" stroke-width="4" stroke-linecap="round" stroke-linejoin="round"/>
<path d="M493.789 206.223C512.892 203.416 523.47 203.078 530.525 202.507C535.229 202.129 541.697 201.935 541.697 201.935" stroke="#4756DF" stroke-width="4" stroke-linecap="round" stroke-linejoin="round"/>
<path d="M501.562 238.88C504.137 238.88 506.225 236.85 506.225 234.346C506.225 231.842 504.137 229.812 501.562 229.812C498.987 229.812 496.899 231.842 496.899 234.346C496.899 236.85 498.987 238.88 501.562 238.88Z" fill="#30242A"/>
<path d="M488.409 245.998C483.505 245.049 480.489 244.283 480.489 244.283C475.597 247.642 470.255 250.335 464.613 252.287C464.613 252.287 464.284 253.179 463.678 254.574" stroke="#30242A" stroke-width="4" stroke-miterlimit="10" stroke-linecap="round"/>
<path d="M413.712 253.311C415.668 250.346 417.784 247.483 420.051 244.735C421.172 243.328 422.314 241.935 423.479 240.555" stroke="#30242A" stroke-width="4" stroke-miterlimit="10" stroke-linecap="round"/>
</svg>
